<svg width="519" height="262" viewBox="0 0 519 262" fill="none" xmlns="http://www.w3.org/2000/svg">
<mask id="path-1-outside-1_368_154" maskUnits="userSpaceOnUse" x="-0.418701" y="-0.226074" width="208" height="262" fill="black">
<rect fill="white" x="-0.418701" y="-0.226074" width="208" height="262"/>
<path d="M97.1983 253.91C86.0506 252.195 75.7933 244.708 70.7142 234.583L69.4279 232.076L67.6799 231.879C56.9939 230.592 46.3079 223.039 41.1958 213.046C39.5468 209.88 38.2935 205.988 37.6338 202.162L37.2051 199.524L34.2038 198.798C30.6747 197.941 26.4861 196.061 23.155 193.818C20.1867 191.839 15.8991 187.65 13.8542 184.781C11.6775 181.681 9.4677 176.8 8.44528 172.842C7.62074 169.742 7.55478 169.016 7.58776 163.046C7.62074 157.11 7.6867 156.351 8.51123 153.317C9.59962 149.26 12.0403 144.148 14.184 141.279C15.0745 140.091 17.3832 137.486 19.2962 135.474C23.056 131.549 25.002 128.647 26.5521 124.623C27.9703 121.028 28.432 118.093 28.6299 111.595C28.9927 100.25 30.6418 92.2352 34.5995 82.9014C38.0296 74.788 43.4056 66.7735 49.8699 60.2102L53.399 56.6152L51.585 55.4939C50.5955 54.8672 48.4188 53.0532 46.8027 51.4042C42.1853 46.8197 40.7011 43.4227 40.7011 37.453C40.7011 32.209 41.8884 28.9768 45.2196 25.052C54.4873 14.0362 78.135 7.27502 105.345 7.80272C115.173 8.00061 119.955 8.39639 126.684 9.51776C147.297 13.0138 161.512 20.9293 165.074 30.9557C165.965 33.4623 166.261 38.5744 165.734 41.3778C164.711 46.5229 161.083 51.4701 155.707 55.0321C154.685 55.7247 153.827 56.3844 153.827 56.4833C153.827 56.6152 155.312 58.1654 157.159 59.9793C171.077 73.7985 178.893 92.6309 178.893 112.519C178.893 122.215 181.499 128.482 188.557 135.936C194.032 141.707 196.307 145.302 198.187 151.041C199.672 155.592 200.1 158.99 199.902 164.695C199.705 170.203 199.177 172.776 197.396 177.426C193.339 187.947 183.709 196.259 172.66 198.897C171.341 199.194 170.219 199.623 170.153 199.821C170.12 199.985 169.889 201.206 169.658 202.459C169.461 203.745 168.966 205.823 168.603 207.076C167.844 209.682 165.041 215.652 164.151 216.641C163.821 217.004 163.161 217.828 162.732 218.455C160.292 221.918 154.553 226.535 150.035 228.712C147.396 229.966 142.185 231.648 140.833 231.648C140.47 231.648 139.612 231.813 138.953 231.977C137.864 232.274 137.601 232.604 136.512 234.814C132.093 243.752 123.155 250.81 113.26 253.25C108.874 254.306 101.75 254.603 97.1983 253.91ZM107.719 236.879C114.283 235.263 119.857 228.185 121.638 221.324C122.33 218.653 123.056 217.301 124.474 216.014C126.09 214.563 127.244 214.266 132.389 214.036C138.788 213.739 142.35 212.222 146.407 208.066C150.529 203.844 154.046 199.709 153.254 195.026C152.825 192.354 153.056 189.32 153.815 187.671C154.705 185.857 156.816 184.01 158.663 183.449C159.652 183.152 161.631 182.954 163.643 182.987C169.514 182.987 171.769 180.032 175.958 175.909C180.311 171.654 182.389 166.048 181.565 160.935C180.905 156.879 179.091 153.713 174.936 149.359C168.735 142.829 165.602 137.75 163.062 130.098C161.38 125.118 160.786 121.226 160.391 112.947C160.226 109.221 159.995 105.725 159.896 105.164C158.544 98.0069 157.257 93.9832 154.454 88.4093C149.672 78.8447 143.24 71.5888 134.105 65.4543C131.301 63.5743 124.969 60.4411 121.374 59.1878C110.424 55.329 97.5281 55.263 86.3144 59.0229C82.4226 60.3092 74.8699 64.168 71.3738 66.6746C67.2512 69.5769 59.5665 77.2286 58.0493 79.9001C57.8844 80.1969 57.6536 80.4938 57.5216 80.5927C56.4003 81.4832 50.5955 92.3341 50.5955 93.5214C50.5955 93.7853 50.4636 94.1151 50.3317 94.28C49.9359 94.7417 48.7156 98.7655 48.1219 101.701C47.3304 105.395 46.6378 112.585 46.6378 116.905C46.6378 121.984 46.143 124.854 44.2631 130.56C42.0204 137.486 38.6563 142.829 32.5547 149.26C29.5204 152.426 28.6299 153.614 27.5415 155.856C25.002 161.133 25.002 165.223 27.5745 170.632C28.6299 172.875 29.4215 173.93 31.4333 175.909C35.589 179.999 38.1082 183.053 43.8799 182.987C47.6398 182.954 49.124 183.284 50.806 184.439C53.6424 186.417 54.6978 189.551 54.1701 194.498C53.5435 200.369 56.796 203.877 61.1496 208.231C65.2723 212.386 69.7907 214.167 76.2551 214.167C80.015 214.167 81.1693 214.497 82.9833 216.113C84.3355 217.301 85.0611 218.686 85.7537 221.357C87.5677 228.547 93.4714 235.593 100.892 237.176C103.3 237.704 104.619 237.638 107.719 236.879ZM74.3751 43.5216C77.3435 42.2023 82.9173 41.8929 86.8751 41.0354C93.2075 39.6172 96.2748 39.3863 106.07 39.5842C114.184 39.7161 115.47 39.8151 119.164 40.6066C122.99 41.4312 129.421 42.0045 133.214 43.5546C134.896 44.2472 134.896 44.2472 136.677 43.6205C139.711 42.5651 143.9 40.3224 145.516 38.8382L147.066 37.453L146.407 36.7274C144.428 34.4517 137.271 31.0876 131.004 29.4715C122.627 27.2947 113.062 26.1404 103.201 26.1404C88.3593 26.1074 74.606 28.68 65.6021 33.1654C62.9306 34.4847 59.5005 36.8594 59.5005 37.3541C59.5005 37.8818 61.7103 39.6298 64.019 40.9161C66.5256 42.3013 71.2419 44.3132 72.0664 44.3132C72.3633 44.3132 73.4187 43.9504 74.3751 43.5216Z"/>
</mask>
<path d="M97.1983 253.91C86.0506 252.195 75.7933 244.708 70.7142 234.583L69.4279 232.076L67.6799 231.879C56.9939 230.592 46.3079 223.039 41.1958 213.046C39.5468 209.88 38.2935 205.988 37.6338 202.162L37.2051 199.524L34.2038 198.798C30.6747 197.941 26.4861 196.061 23.155 193.818C20.1867 191.839 15.8991 187.65 13.8542 184.781C11.6775 181.681 9.4677 176.8 8.44528 172.842C7.62074 169.742 7.55478 169.016 7.58776 163.046C7.62074 157.11 7.6867 156.351 8.51123 153.317C9.59962 149.26 12.0403 144.148 14.184 141.279C15.0745 140.091 17.3832 137.486 19.2962 135.474C23.056 131.549 25.002 128.647 26.5521 124.623C27.9703 121.028 28.432 118.093 28.6299 111.595C28.9927 100.25 30.6418 92.2352 34.5995 82.9014C38.0296 74.788 43.4056 66.7735 49.8699 60.2102L53.399 56.6152L51.585 55.4939C50.5955 54.8672 48.4188 53.0532 46.8027 51.4042C42.1853 46.8197 40.7011 43.4227 40.7011 37.453C40.7011 32.209 41.8884 28.9768 45.2196 25.052C54.4873 14.0362 78.135 7.27502 105.345 7.80272C115.173 8.00061 119.955 8.39639 126.684 9.51776C147.297 13.0138 161.512 20.9293 165.074 30.9557C165.965 33.4623 166.261 38.5744 165.734 41.3778C164.711 46.5229 161.083 51.4701 155.707 55.0321C154.685 55.7247 153.827 56.3844 153.827 56.4833C153.827 56.6152 155.312 58.1654 157.159 59.9793C171.077 73.7985 178.893 92.6309 178.893 112.519C178.893 122.215 181.499 128.482 188.557 135.936C194.032 141.707 196.307 145.302 198.187 151.041C199.672 155.592 200.1 158.99 199.902 164.695C199.705 170.203 199.177 172.776 197.396 177.426C193.339 187.947 183.709 196.259 172.66 198.897C171.341 199.194 170.219 199.623 170.153 199.821C170.12 199.985 169.889 201.206 169.658 202.459C169.461 203.745 168.966 205.823 168.603 207.076C167.844 209.682 165.041 215.652 164.151 216.641C163.821 217.004 163.161 217.828 162.732 218.455C160.292 221.918 154.553 226.535 150.035 228.712C147.396 229.966 142.185 231.648 140.833 231.648C140.47 231.648 139.612 231.813 138.953 231.977C137.864 232.274 137.601 232.604 136.512 234.814C132.093 243.752 123.155 250.81 113.26 253.25C108.874 254.306 101.75 254.603 97.1983 253.91ZM107.719 236.879C114.283 235.263 119.857 228.185 121.638 221.324C122.33 218.653 123.056 217.301 124.474 216.014C126.09 214.563 127.244 214.266 132.389 214.036C138.788 213.739 142.35 212.222 146.407 208.066C150.529 203.844 154.046 199.709 153.254 195.026C152.825 192.354 153.056 189.32 153.815 187.671C154.705 185.857 156.816 184.01 158.663 183.449C159.652 183.152 161.631 182.954 163.643 182.987C169.514 182.987 171.769 180.032 175.958 175.909C180.311 171.654 182.389 166.048 181.565 160.935C180.905 156.879 179.091 153.713 174.936 149.359C168.735 142.829 165.602 137.75 163.062 130.098C161.38 125.118 160.786 121.226 160.391 112.947C160.226 109.221 159.995 105.725 159.896 105.164C158.544 98.0069 157.257 93.9832 154.454 88.4093C149.672 78.8447 143.24 71.5888 134.105 65.4543C131.301 63.5743 124.969 60.4411 121.374 59.1878C110.424 55.329 97.5281 55.263 86.3144 59.0229C82.4226 60.3092 74.8699 64.168 71.3738 66.6746C67.2512 69.5769 59.5665 77.2286 58.0493 79.9001C57.8844 80.1969 57.6536 80.4938 57.5216 80.5927C56.4003 81.4832 50.5955 92.3341 50.5955 93.5214C50.5955 93.7853 50.4636 94.1151 50.3317 94.28C49.9359 94.7417 48.7156 98.7655 48.1219 101.701C47.3304 105.395 46.6378 112.585 46.6378 116.905C46.6378 121.984 46.143 124.854 44.2631 130.56C42.0204 137.486 38.6563 142.829 32.5547 149.26C29.5204 152.426 28.6299 153.614 27.5415 155.856C25.002 161.133 25.002 165.223 27.5745 170.632C28.6299 172.875 29.4215 173.93 31.4333 175.909C35.589 179.999 38.1082 183.053 43.8799 182.987C47.6398 182.954 49.124 183.284 50.806 184.439C53.6424 186.417 54.6978 189.551 54.1701 194.498C53.5435 200.369 56.796 203.877 61.1496 208.231C65.2723 212.386 69.7907 214.167 76.2551 214.167C80.015 214.167 81.1693 214.497 82.9833 216.113C84.3355 217.301 85.0611 218.686 85.7537 221.357C87.5677 228.547 93.4714 235.593 100.892 237.176C103.3 237.704 104.619 237.638 107.719 236.879ZM74.3751 43.5216C77.3435 42.2023 82.9173 41.8929 86.8751 41.0354C93.2075 39.6172 96.2748 39.3863 106.07 39.5842C114.184 39.7161 115.47 39.8151 119.164 40.6066C122.99 41.4312 129.421 42.0045 133.214 43.5546C134.896 44.2472 134.896 44.2472 136.677 43.6205C139.711 42.5651 143.9 40.3224 145.516 38.8382L147.066 37.453L146.407 36.7274C144.428 34.4517 137.271 31.0876 131.004 29.4715C122.627 27.2947 113.062 26.1404 103.201 26.1404C88.3593 26.1074 74.606 28.68 65.6021 33.1654C62.9306 34.4847 59.5005 36.8594 59.5005 37.3541C59.5005 37.8818 61.7103 39.6298 64.019 40.9161C66.5256 42.3013 71.2419 44.3132 72.0664 44.3132C72.3633 44.3132 73.4187 43.9504 74.3751 43.5216Z" stroke="white" stroke-width="14.3857" mask="url(#path-1-outside-1_368_154)"/>
<path d="M40.4206 94.8339L68.5783 56.3242L52.0149 42.2452L54.4994 26.0959L102.119 16.9863L151.809 30.651L152.223 42.6595L129.035 52.5974L158.849 78.6847L177.896 137.07L190.733 166.47L165.06 194.628L135.66 224.856L102.947 246.803L85.1416 232.724L48.7023 207.051L37.9361 193.8L17.646 174.338L18.0601 151.977L32.9671 135.828L40.4206 94.8339Z" fill="url(#paint0_linear_368_154)"/>
<path d="M97.1983 253.91C86.0506 252.195 75.7933 244.708 70.7142 234.583L69.4279 232.076L67.6799 231.878C56.9939 230.592 46.3079 223.039 41.1958 213.046C39.5468 209.88 38.2935 205.988 37.6338 202.162L37.2051 199.524L34.2038 198.798C30.6747 197.941 26.4861 196.061 23.155 193.818C20.1867 191.839 15.8991 187.65 13.8542 184.781C11.6775 181.681 9.4677 176.8 8.44528 172.842C7.62074 169.742 7.55478 169.016 7.58776 163.046C7.62074 157.11 7.6867 156.351 8.51123 153.317C9.59962 149.26 12.0403 144.148 14.184 141.279C15.0745 140.091 17.3832 137.486 19.2962 135.474C23.056 131.549 25.002 128.647 26.5521 124.623C27.9703 121.028 28.432 118.093 28.6299 111.595C28.9927 100.25 30.6418 92.2352 34.5995 82.9014C38.0296 74.788 43.4056 66.7735 49.8699 60.2102L53.399 56.6152L51.585 55.4939C50.5955 54.8672 48.4188 53.0532 46.8027 51.4042C42.1853 46.8197 40.7011 43.4227 40.7011 37.453C40.7011 32.209 41.8884 28.9768 45.2196 25.052C54.4873 14.0362 78.135 7.27502 105.345 7.80272C115.173 8.00061 119.955 8.39639 126.684 9.51776C147.297 13.0138 161.512 20.9293 165.074 30.9557C165.965 33.4623 166.261 38.5744 165.734 41.3778C164.711 46.5229 161.083 51.4701 155.707 55.0321C154.685 55.7247 153.827 56.3844 153.827 56.4833C153.827 56.6152 155.312 58.1654 157.159 59.9793C171.077 73.7985 178.893 92.6309 178.893 112.519C178.893 122.215 181.499 128.482 188.557 135.936C194.032 141.707 196.307 145.302 198.187 151.041C199.672 155.592 200.1 158.99 199.902 164.695C199.705 170.203 199.177 172.776 197.396 177.426C193.339 187.947 183.709 196.259 172.66 198.897C171.341 199.194 170.219 199.623 170.153 199.821C170.12 199.985 169.889 201.206 169.658 202.459C169.461 203.745 168.966 205.823 168.603 207.076C167.845 209.682 165.041 215.652 164.151 216.641C163.821 217.004 163.161 217.828 162.732 218.455C160.292 221.918 154.553 226.535 150.035 228.712C147.396 229.966 142.185 231.648 140.833 231.648C140.47 231.648 139.612 231.813 138.953 231.977C137.864 232.274 137.601 232.604 136.512 234.814C132.093 243.752 123.155 250.81 113.26 253.25C108.874 254.306 101.75 254.603 97.1983 253.91ZM107.719 236.879C114.283 235.263 119.857 228.185 121.638 221.324C122.33 218.653 123.056 217.301 124.474 216.014C126.09 214.563 127.244 214.266 132.389 214.036C138.788 213.739 142.35 212.222 146.407 208.066C150.529 203.844 154.046 199.709 153.254 195.026C152.825 192.354 153.056 189.32 153.815 187.671C154.705 185.857 156.816 184.01 158.663 183.449C159.652 183.152 161.631 182.954 163.643 182.987C169.514 182.987 171.769 180.032 175.958 175.909C180.311 171.654 182.389 166.048 181.565 160.935C180.905 156.879 179.091 153.713 174.936 149.359C168.735 142.829 165.602 137.75 163.062 130.098C161.38 125.118 160.786 121.226 160.391 112.947C160.226 109.221 159.995 105.725 159.896 105.164C158.544 98.0069 157.257 93.9832 154.454 88.4093C149.672 78.8447 143.24 71.5888 134.105 65.4543C131.301 63.5743 124.969 60.4411 121.374 59.1878C110.424 55.329 97.5281 55.263 86.3144 59.0229C82.4226 60.3092 74.8699 64.168 71.3738 66.6746C67.2512 69.5769 59.5665 77.2286 58.0493 79.9001C57.8844 80.1969 57.6536 80.4938 57.5216 80.5927C56.4003 81.4832 50.5955 92.3341 50.5955 93.5214C50.5955 93.7853 50.4636 94.1151 50.3317 94.28C49.9359 94.7417 48.7156 98.7655 48.1219 101.701C47.3304 105.395 46.6378 112.585 46.6378 116.905C46.6378 121.984 46.143 124.854 44.2631 130.56C42.0204 137.486 38.6563 142.829 32.5547 149.26C29.5204 152.426 28.6299 153.614 27.5415 155.856C25.002 161.133 25.002 165.223 27.5745 170.632C28.6299 172.875 29.4215 173.93 31.4333 175.909C35.589 179.999 38.1082 183.053 43.8799 182.987C47.6398 182.954 49.124 183.284 50.806 184.439C53.6424 186.417 54.6978 189.551 54.1701 194.498C53.5435 200.369 56.796 203.877 61.1496 208.231C65.2723 212.386 69.7907 214.167 76.2551 214.167C80.015 214.167 81.1693 214.497 82.9833 216.113C84.3355 217.301 85.0611 218.686 85.7537 221.357C87.5677 228.547 93.4714 235.593 100.892 237.176C103.3 237.704 104.619 237.638 107.719 236.879ZM74.3751 43.5216C77.3435 42.2023 82.9173 41.8929 86.8751 41.0354C93.2075 39.6172 96.2748 39.3863 106.07 39.5842C114.184 39.7161 115.47 39.8151 119.164 40.6066C122.99 41.4312 129.421 42.0045 133.214 43.5546C134.896 44.2472 134.896 44.2472 136.677 43.6205C139.711 42.5651 143.9 40.3224 145.516 38.8382L147.066 37.453L146.407 36.7274C144.428 34.4517 137.271 31.0876 131.004 29.4715C122.627 27.2947 113.062 26.1404 103.201 26.1404C88.3593 26.1074 74.606 28.68 65.6021 33.1654C62.9306 34.4847 59.5005 36.8594 59.5005 37.3541C59.5005 37.8818 61.7103 39.6298 64.019 40.9161C66.5256 42.3013 71.2419 44.3132 72.0664 44.3132C72.3633 44.3132 73.4187 43.9504 74.3751 43.5216Z" fill="#040404"/>
<path d="M65.4054 131.994C64.0182 131.385 61.988 129.186 61.3452 127.663C61.0407 126.919 60.8376 125.396 60.8376 124.009C60.8376 120.828 61.6835 119.137 64.7964 115.99L67.2664 113.486L64.6949 110.712C61.5482 107.362 60.8376 105.839 60.8376 102.659C60.8376 99.749 61.6835 97.7866 63.7475 95.9595C65.4054 94.5046 66.3528 94.2339 69.4657 94.2339C73.1537 94.2339 73.5936 94.4369 76.9433 97.6851L80.0223 100.663L82.6953 98.0911C86.0788 94.8091 87.263 94.2339 90.7819 94.2339C94.0978 94.2339 95.7219 94.9106 97.4813 96.9407C98.9701 98.6663 99.5791 101.204 99.2408 103.978C98.9024 106.821 98.5979 107.294 95.5189 110.475L92.6429 113.385L95.2143 115.888C98.6655 119.306 99.2408 120.422 99.2408 123.84C99.2408 127.189 98.6994 128.814 97.0076 130.404C95.4174 131.96 93.8271 132.468 90.4097 132.468C88.0751 132.468 87.4999 132.332 86.0111 131.487C85.0638 130.911 83.3381 129.456 82.2216 128.171L80.1576 125.87L77.3155 128.678C75.7252 130.201 73.8981 131.69 73.2552 131.96C71.6988 132.603 66.8265 132.603 65.4054 131.994Z" fill="#040404"/>
<path d="M112.348 131.799C108.795 129.938 107.238 125.64 108.355 121.071C108.694 119.853 109.37 118.905 111.739 116.435L114.717 113.321L112.179 110.783C108.897 107.568 108.22 106.282 108.186 103.203C108.152 99.8522 108.49 98.6 109.912 96.9417C111.638 94.945 113.296 94.2343 116.545 94.2343C120.065 94.2343 121.147 94.742 124.498 98.0585L127.273 100.834L130.082 98.0585C131.605 96.5356 133.432 95.0466 134.109 94.742C135.835 94.0313 140.471 94.0651 141.927 94.7758C145.818 96.7387 147.477 101.206 146.055 105.978C145.649 107.297 144.972 108.279 142.773 110.58L139.964 113.524L142.874 116.469C145.209 118.905 145.852 119.751 146.157 121.037C147.375 125.775 145.548 130.513 141.96 132.002C140.438 132.645 135.7 132.611 134.143 131.968C133.5 131.698 131.672 130.209 130.116 128.686L127.273 125.911L124.802 128.517C121.621 131.833 120.268 132.476 116.443 132.442C114.277 132.442 113.262 132.273 112.348 131.799Z" fill="#040404"/>
<path d="M430.729 102.429H463.629V140.829C463.629 151.629 460.862 159.629 455.329 164.829C449.862 169.963 441.129 172.529 429.129 172.529H426.529C414.596 172.529 405.862 169.929 400.329 164.729C394.862 159.529 392.129 151.563 392.129 140.829V102.429H424.929V144.529C424.929 145.396 425.196 146.096 425.729 146.629C426.262 147.096 426.929 147.329 427.729 147.329C428.596 147.329 429.296 147.063 429.829 146.529C430.429 145.996 430.729 145.329 430.729 144.529V102.429Z" fill="url(#paint1_linear_368_154)"/>
<path d="M484.375 171.529V102.429H518.775V171.529H484.375Z" fill="url(#paint2_linear_368_154)"/>
<defs>
<linearGradient id="paint0_linear_368_154" x1="54.8584" y1="66.7763" x2="205.947" y2="246.803" gradientUnits="userSpaceOnUse">
<stop stop-color="#B4BEFE"/>
<stop offset="0.0001" stop-color="#B4BEFE"/>
<stop offset="1" stop-color="#A6E3A1"/>
</linearGradient>
<linearGradient id="paint1_linear_368_154" x1="522.229" y1="180.718" x2="320.695" y2="91.0937" gradientUnits="userSpaceOnUse">
<stop stop-color="#B4BEFE"/>
<stop offset="1" stop-color="#A6E3A1"/>
</linearGradient>
<linearGradient id="paint2_linear_368_154" x1="522.229" y1="180.718" x2="320.695" y2="91.0937" gradientUnits="userSpaceOnUse">
<stop stop-color="#B4BEFE"/>
<stop offset="1" stop-color="#A6E3A1"/>
</linearGradient>
</defs>
</svg>
